HIERARCHY
ROOT Hips
{
	OFFSET 0.000000 0.000000 0.000000
	CHANNELS 6 Xposition Yposition Zposition Zrotation Yrotation Xrotation 
	JOINT LowerBack
	{
		OFFSET 0.000000 0.000000 0.000000
		CHANNELS 3 Zrotation Yrotation Xrotation
		JOINT Spine
		{
			OFFSET 0.028270 2.035590 -0.193380
			CHANNELS 3 Zrotation Yrotation Xrotation
			JOINT Spine1
			{
				OFFSET 0.056720 2.048850 -0.042750
				CHANNELS 3 Zrotation Yrotation Xrotation
				JOINT Neck
				{
					OFFSET 0.000000 0.000000 0.000000
					CHANNELS 3 Zrotation Yrotation Xrotation
					JOINT Neck1
					{
						OFFSET -0.054170 1.746240 0.172020
						CHANNELS 3 Zrotation Yrotation Xrotation
						JOINT Head
						{
							OFFSET 0.104070 1.761360 -0.123970
							CHANNELS 3 Zrotation Yrotation Xrotation
							End Site
							{
								OFFSET 0.000000 0.000000 0.000000
							}
						}
					}
				}
				JOINT LeftShoulder
				{
					OFFSET 0.000000 0.000000 0.000000
					CHANNELS 3 Zrotation Yrotation Xrotation
					JOINT LeftArm
					{
						OFFSET 3.362410 1.200890 -0.311210
						CHANNELS 3 Zrotation Yrotation Xrotation
						JOINT LeftForeArm
						{
							OFFSET 4.983000 -0.000000 -0.000000
							CHANNELS 3 Zrotation Yrotation Xrotation
							JOINT LeftHand
							{
								OFFSET 3.483560 -0.000000 -0.000000
								CHANNELS 3 Zrotation Yrotation Xrotation
								JOINT LeftFingerBase
								{
									OFFSET 0.000000 0.000000 0.000000
									CHANNELS 3 Zrotation Yrotation Xrotation
									JOINT LeftHandIndex1
									{
										OFFSET 0.715260 -0.000000 -0.000000
										CHANNELS 3 Zrotation Yrotation Xrotation
										End Site
										{
											OFFSET 0.000000 0.000000 0.000000
										}
									}
								}
								JOINT LThumb
								{
									OFFSET 0.000000 0.000000 0.000000
									CHANNELS 3 Zrotation Yrotation Xrotation
									End Site
									{
										OFFSET 0.000000 0.000000 0.000000
									}
								}
							}
						}
					}
				}
				JOINT RightShoulder
				{
					OFFSET 0.000000 0.000000 0.000000
					CHANNELS 3 Zrotation Yrotation Xrotation
					JOINT RightArm
					{
						OFFSET -3.136600 1.374050 -0.404650
						CHANNELS 3 Zrotation Yrotation Xrotation
						JOINT RightForeArm
						{
							OFFSET -5.241900 -0.000000 -0.000000
							CHANNELS 3 Zrotation Yrotation Xrotation
							JOINT RightHand
							{
								OFFSET -3.444170 -0.000000 -0.000000
								CHANNELS 3 Zrotation Yrotation Xrotation
								JOINT RightFingerBase
								{
									OFFSET 0.000000 0.000000 0.000000
									CHANNELS 3 Zrotation Yrotation Xrotation
									JOINT RightHandIndex1
									{
										OFFSET -0.622530 -0.000000 -0.000000
										CHANNELS 3 Zrotation Yrotation Xrotation
										End Site
										{
											OFFSET 0.000000 0.000000 0.000000
										}
									}
								}
								JOINT RThumb
								{
									OFFSET 0.000000 0.000000 0.000000
									CHANNELS 3 Zrotation Yrotation Xrotation
									End Site
									{
										OFFSET 0.000000 0.000000 0.000000
									}
								}
							}
						}
					}
				}
			}
		}
	}
}
}
MOTION
Frames: 10
Frame Time: 0.008333
5.622262 16.896731 0.881725 21.511014 -86.717615 -7.559998 -3.841479 -1.778285 -6.724096 -1.669486 -1.824519 -3.923907 -7.637394 -1.989147 1.794038 11.245816 -6.930920 -11.061862 -4.302277 -0.310659 -0.958796 0.000000 0.000000 0.000000 -0.794388 15.909496 2.918312 -70.062543 6.193980 -33.103457 -2.090927 -12.822856 -0.040102 34.697331 17.689002 5.484938 0.178104 0.172218 0.000000 0.000000 0.000000 0.000000 0.000000 0.000000 0.000000 18.944945 -1.492347 -0.175501 69.661232 5.073188 -20.259980 1.026431 45.209319 -0.044012 -30.922242 16.762058 -4.745518 0.173243 -0.194543 -0.000000 0.000000 0.000000 0.000000 0.000000 0.000000 0.000000 
5.513305 16.921229 0.856969 22.139342 -86.647753 -8.015731 -3.930515 -1.706016 -6.780004 -1.692998 -1.746533 -3.939850 -7.625645 -1.911382 1.787786 11.189339 -6.899425 -11.134118 -4.268477 -0.307287 -0.978809 0.000000 0.000000 0.000000 -0.859380 16.306354 2.915794 -69.417371 6.779325 -33.168229 -2.106674 -13.436916 -0.038332 34.797505 16.998008 5.284332 0.178730 0.164471 0.000000 0.000000 0.000000 0.000000 0.000000 0.000000 0.000000 18.719687 -1.339343 -0.206800 69.207373 5.279352 -20.374645 0.994370 46.541582 -0.046576 -30.804573 16.886786 -4.765264 0.177549 -0.204072 -0.000000 0.000000 0.000000 0.000000 0.000000 0.000000 0.000000 
5.405433 16.940124 0.833048 22.773176 -86.585672 -8.499468 -4.012104 -1.629278 -6.803881 -1.715135 -1.663063 -3.952723 -7.609941 -1.827839 1.770174 11.112345 -6.857442 -11.196519 -4.235543 -0.303983 -0.996603 0.000000 0.000000 0.000000 -0.919624 16.652754 2.920749 -68.759710 7.349431 -33.281359 -2.117222 -14.057553 -0.036815 34.962042 16.384971 5.117124 0.180328 0.157989 0.000000 0.000000 0.000000 0.000000 0.000000 0.000000 0.000000 18.473653 -1.175807 -0.236032 68.754270 5.521133 -20.472182 0.962789 47.859694 -0.049392 -30.586662 17.000309 -4.765609 0.181758 -0.214736 -0.000000 0.000000 0.000000 0.000000 0.000000 0.000000 0.000000 
5.298185 16.953127 0.810293 23.315627 -86.532954 -8.904931 -4.079671 -1.547731 -6.807606 -1.734292 -1.574811 -3.963668 -7.589978 -1.739223 1.745928 11.014045 -6.803079 -11.251875 -4.203226 -0.300720 -1.012839 0.000000 0.000000 0.000000 -0.972297 16.971060 2.932620 -68.096150 7.883168 -33.443948 -2.122535 -14.663942 -0.035593 35.187247 15.862809 4.986115 0.182898 0.152888 0.000000 0.000000 0.000000 0.000000 0.000000 0.000000 0.000000 18.205015 -0.999053 -0.266158 68.296486 5.786639 -20.541900 0.931294 49.171002 -0.052454 -30.285205 17.091915 -4.746052 0.185878 -0.226444 -0.000000 0.000000 0.000000 0.000000 0.000000 0.000000 0.000000 
5.191032 16.960195 0.788751 23.722694 -86.489067 -9.180937 -4.130409 -1.462109 -6.800297 -1.749683 -1.483154 -3.973705 -7.566009 -1.646965 1.717865 10.895570 -6.742905 -11.301292 -4.170720 -0.297445 -1.027614 0.000000 0.000000 0.000000 -1.019743 17.264990 2.949852 -67.430798 8.383199 -33.646971 -2.124020 -15.256477 -0.034675 35.454751 15.445045 4.892404 0.186175 0.149171 0.000000 0.000000 0.000000 0.000000 0.000000 0.000000 0.000000 17.913009 -0.817715 -0.298155 67.834451 6.078005 -20.579938 0.900108 50.466931 -0.055693 -29.919667 17.165080 -4.710694 0.189857 -0.239023 -0.000000 0.000000 0.000000 0.000000 0.000000 0.000000 0.000000 
5.083387 16.961371 0.768630 23.920859 -86.452977 -9.247792 -4.160507 -1.373062 -6.791553 -1.760488 -1.389524 -3.983859 -7.539200 -1.552540 1.689222 10.760349 -6.678065 -11.345385 -4.138109 -0.294182 -1.040938 0.000000 0.000000 0.000000 -1.063220 17.547118 2.970230 -66.762998 8.840492 -33.879764 -2.122967 -15.824934 -0.034043 35.743792 15.126584 4.831691 0.189907 0.146704 0.000000 0.000000 0.000000 0.000000 0.000000 0.000000 0.000000 17.601993 -0.634332 -0.333815 67.364045 6.390059 -20.582594 0.868799 51.749097 -0.059072 -29.516381 17.217539 -4.663137 0.193668 -0.252244 0.000000 0.000000 0.000000 0.000000 0.000000 0.000000 0.000000 
4.974829 16.956897 0.750076 23.818797 -86.423995 -9.008897 -4.162222 -1.281842 -6.791511 -1.764839 -1.296300 -3.995909 -7.510220 -1.458509 1.660057 10.609397 -6.624584 -11.383203 -4.103719 -0.290844 -1.052125 0.000000 0.000000 0.000000 -1.118602 17.800620 2.990733 -66.090420 9.288945 -34.114960 -2.122584 -16.397583 -0.033641 36.020726 14.924028 4.805377 0.193559 0.145358 0.000000 0.000000 0.000000 0.000000 0.000000 0.000000 0.000000 17.268629 -0.469206 -0.371862 66.894771 6.744432 -20.556682 0.838595 52.991329 -0.062479 -29.090128 17.271284 -4.611880 0.197240 -0.265940 0.000000 0.000000 0.000000 0.000000 0.000000 0.000000 0.000000 
4.865191 16.947153 0.732751 23.540628 -86.396172 -8.604771 -4.153219 -1.190670 -6.784436 -1.767206 -1.203826 -4.005634 -7.483099 -1.364771 1.635971 10.459114 -6.554971 -11.416303 -4.072223 -0.287739 -1.062250 0.000000 0.000000 0.000000 -1.157566 18.082511 3.010692 -65.412064 9.643351 -34.385266 -2.120376 -16.892927 -0.033496 36.280930 14.760583 4.788361 0.197230 0.144756 0.000000 0.000000 0.000000 0.000000 0.000000 0.000000 0.000000 16.946544 -0.292267 -0.417958 66.399323 7.092936 -20.486793 0.805392 54.246852 -0.066065 -28.694107 17.281837 -4.553824 0.200672 -0.279683 0.000000 0.000000 0.000000 0.000000 0.000000 0.000000 0.000000 
4.753910 16.932491 0.717123 22.880127 -86.371514 -7.813964 -4.112439 -1.099953 -6.789260 -1.762554 -1.115064 -4.017285 -7.457175 -1.274763 1.613373 10.304592 -6.497977 -11.441762 -4.039955 -0.284675 -1.069704 0.000000 0.000000 0.000000 -1.214435 18.344595 3.026895 -64.725342 9.986393 -34.645848 -2.121182 -17.384966 -0.033495 36.484689 14.681486 4.790646 0.200209 0.144817 0.000000 0.000000 0.000000 0.000000 0.000000 0.000000 0.000000 16.618817 -0.138182 -0.467330 65.901714 7.482221 -20.393931 0.772536 55.463138 -0.069646 -28.319397 17.295432 -4.499969 0.203890 -0.293474 0.000000 0.000000 0.000000 0.000000 0.000000 0.000000 0.000000 
4.640861 16.913368 0.703150 21.865300 -86.347496 -6.671686 -4.045463 -1.010904 -6.799407 -1.752375 -1.030661 -4.029077 -7.434688 -1.188968 1.594542 10.155353 -6.440865 -11.460203 -4.009287 -0.281817 -1.074938 0.000000 0.000000 0.000000 -1.278021 18.612132 3.038801 -64.031715 10.282193 -34.913499 -2.123910 -17.840064 -0.033624 36.626065 14.644319 4.797730 0.202476 0.145267 0.000000 0.000000 0.000000 0.000000 0.000000 0.000000 0.000000 16.303687 0.007031 -0.522093 65.390013 7.892199 -20.276146 0.738300 56.662853 -0.073310 -27.991516 17.293407 -4.449617 0.206973 -0.307081 0.000000 0.000000 0.000000 0.000000 0.000000 0.000000 0.000000 
